<?xml version="1.0" standalone="no"?>
<!DOCTYPE svg PUBLIC "-//W3C//DTD SVG 20010904//EN"
 "http://www.w3.org/TR/2001/REC-SVG-20010904/DTD/svg10.dtd">
<svg version="1.0" xmlns="http://www.w3.org/2000/svg"
 width="1205.000000pt" height="658.000000pt" viewBox="0 0 1205.000000 658.000000"
 preserveAspectRatio="xMidYMid meet">

<g transform="translate(0.000000,658.000000) scale(0.100000,-0.100000)"
fill="#000000" stroke="none">
<path d="M6810 5964 c-200 -9 -419 -27 -555 -44 -137 -18 -152 -21 -172 -45
-26 -29 -28 -52 -12 -89 19 -40 53 -46 159 -25 284 55 684 88 1145 96 753 12
1314 -54 1761 -208 157 -54 162 -55 144 -34 -18 22 -249 109 -409 154 -313 89
-689 147 -1161 181 -149 11 -767 20 -900 14z"/>
<path d="M4310 5329 c-529 -45 -899 -164 -1069 -344 -75 -79 -106 -151 -106
-245 0 -137 57 -251 199 -399 160 -165 372 -308 686 -465 1134 -564 2934 -854
4014 -646 402 78 663 220 750 410 29 64 28 194 -3 271 -72 185 -284 389 -600
579 -247 148 -662 330 -1021 449 -556 182 -1194 314 -1835 377 -188 18 -854
27 -1015 13z m790 -99 c910 -44 1891 -278 2568 -615 395 -197 638 -415 659
-594 10 -83 -12 -137 -82 -207 -100 -101 -266 -169 -525 -213 -357 -62 -849
-60 -1375 6 l-140 18 75 7 c318 31 410 42 538 63 537 91 922 269 1012 468 25
55 25 139 1 194 -82 179 -403 339 -871 433 -140 28 -459 74 -467 67 -9 -9 118
-117 138 -117 46 0 279 -54 389 -90 375 -123 488 -287 306 -446 -157 -137
-551 -246 -1032 -285 -295 -24 -773 -3 -1054 46 -359 62 -632 183 -697 308
-69 134 79 276 389 375 102 33 292 77 377 88 47 6 60 13 93 48 57 61 63 73 30
69 -531 -61 -929 -176 -1157 -334 -84 -57 -136 -112 -163 -171 -9 -20 -21 -38
-25 -38 -23 0 -161 105 -249 189 -75 72 -106 109 -132 161 -45 91 -52 135 -31
206 65 223 482 356 1165 372 30 1 147 -3 260 -8z"/>
<path d="M7005 5333 c-141 -9 -336 -25 -473 -40 l-153 -17 233 -46 c548 -110
1062 -279 1471 -483 l177 -88 58 35 c113 70 208 162 238 233 18 42 18 107 0
142 -69 133 -333 224 -761 260 -107 10 -661 12 -790 4z"/>
<path d="M2835 4661 c-242 -93 -527 -252 -704 -391 -45 -36 -51 -45 -51 -79 0
-46 24 -71 69 -71 27 0 51 17 144 102 190 172 380 309 570 412 48 26 85 52 81
57 -6 11 9 15 -109 -30z"/>
<path d="M9867 4608 c-68 -110 -134 -204 -183 -260 -123 -140 -343 -317 -586
-470 -112 -70 -146 -98 -121 -98 16 0 340 174 439 235 223 140 398 288 498
425 81 109 88 136 50 175 -24 24 -81 19 -97 -7z"/>
<path d="M3192 4130 c-91 -66 -126 -184 -81 -277 96 -198 491 -304 1294 -348
l100 -5 -170 58 c-441 151 -775 330 -1066 572 l-36 30 -41 -30z"/>
<path d="M2520 2895 c0 -10 212 -132 320 -184 396 -189 873 -298 1500 -341
186 -13 726 -13 945 0 494 29 1109 107 1164 147 50 38 66 71 66 133 0 66 -18
99 -75 138 -44 29 -94 28 -205 -4 -370 -107 -895 -191 -1400 -224 -203 -13
-696 -13 -885 0 -554 38 -1009 136 -1317 285 -62 29 -113 52 -113 50z"/>
<path d="M5697 1486 c-209 -61 -330 -272 -314 -552 15 -272 160 -446 383 -461
217 -15 372 98 440 322 28 92 26 306 -3 401 -59 188 -189 293 -372 300 -53 2
-104 -2 -134 -10z m229 -104 c117 -60 188 -210 188 -397 0 -145 -35 -252 -111
-336 -133 -147 -360 -105 -453 84 -127 259 -36 598 180 668 43 14 152 4 196
-19z"/>
<path d="M4020 1484 c-14 -2 -40 -7 -57 -10 l-33 -5 0 -489 0 -490 55 0 55 0
0 220 0 220 73 0 c39 0 88 -5 109 -10 47 -13 105 -78 119 -133 6 -23 26 -98
43 -167 l31 -125 59 -3 c53 -3 58 -1 51 15 -4 10 -23 81 -41 158 -19 77 -40
154 -46 170 -16 43 -56 94 -90 114 l-29 18 31 13 c56 23 118 95 136 158 42
145 -22 280 -155 328 -45 16 -255 28 -311 18z m265 -103 c48 -22 69 -44 90
-94 46 -111 -16 -234 -134 -267 -20 -5 -73 -10 -118 -10 l-83 0 0 195 0 195
103 0 c77 0 112 -5 142 -19z"/>
<path d="M4887 1476 c-204 -57 -262 -286 -110 -431 15 -14 78 -50 139 -80 60
-29 124 -65 141 -79 70 -59 82 -175 26 -244 -62 -76 -191 -92 -321 -39 l-63
25 -10 -26 c-22 -57 -18 -65 46 -91 51 -21 76 -25 170 -25 94 -1 117 2 160 22
127 58 189 186 156 318 -24 96 -76 143 -258 234 -130 65 -158 97 -158 181 0
65 20 101 74 132 58 34 173 31 264 -8 13 -6 20 0 32 29 8 19 15 40 15 45 0 36
-215 62 -303 37z"/>
<path d="M190 1143 c0 -257 4 -354 15 -407 39 -185 159 -276 348 -263 164 11
261 98 302 269 11 49 15 138 15 401 l0 337 -55 0 -55 0 0 -340 c0 -201 -4
-359 -11 -389 -27 -125 -121 -199 -242 -188 -81 7 -132 43 -172 122 l-30 59
-3 368 -3 368 -55 0 -54 0 0 -337z"/>
<path d="M1120 985 l0 -495 51 0 51 0 -4 423 -3 422 52 -102 c28 -57 138 -247
244 -423 l193 -320 53 0 53 0 0 495 0 495 -51 0 -51 0 3 -414 4 -414 -60 116
c-33 65 -141 251 -240 414 l-180 297 -57 1 -58 0 0 -495z"/>
<path d="M2060 985 l0 -495 55 0 55 0 0 495 0 495 -55 0 -55 0 0 -495z"/>
<path d="M2320 1473 c0 -4 68 -227 152 -496 l153 -487 59 2 59 3 168 490 c93
270 169 491 169 493 0 1 -26 2 -58 2 l-58 0 -122 -372 c-67 -205 -127 -393
-132 -418 -6 -25 -13 -52 -16 -60 -4 -8 -23 48 -44 125 -22 77 -79 271 -127
430 l-89 290 -57 3 c-31 2 -57 -1 -57 -5z"/>
<path d="M3240 985 l0 -495 260 0 260 0 0 45 0 45 -205 0 -205 0 0 190 0 190
185 0 185 0 0 45 0 45 -185 0 -185 0 0 170 0 170 195 0 195 0 0 45 0 45 -250
0 -250 0 0 -495z"/>
</g>
</svg>
